<?xml version="1.0" encoding="UTF-8" standalone="no"?>
<svg
   xmlns:dc="http://purl.org/dc/elements/1.1/"
   xmlns:cc="http://creativecommons.org/ns#"
   xmlns:rdf="http://www.w3.org/1999/02/22-rdf-syntax-ns#"
   xmlns:svg="http://www.w3.org/2000/svg"
   xmlns="http://www.w3.org/2000/svg"
   xml:space="preserve"
   style="enable-background:new 0 0 50.463 50.463;"
   viewBox="0 0 50.463 50.463"
   y="0px"
   x="0px"
   id="Capa_1"
   version="1.1"><metadata
     id="metadata2165"><rdf:RDF><cc:Work
         rdf:about=""><dc:format>image/svg+xml</dc:format><dc:type
           rdf:resource="http://purl.org/dc/dcmitype/StillImage" /><dc:title></dc:title></cc:Work></rdf:RDF></metadata><defs
     id="defs2163" /><g
     id="g2128"><g
       id="g2126"><path
         id="path2124"
         d="M47.923,29.694c0.021-0.601-0.516-1.063-0.901-1.515c-0.676-2.733-2.016-5.864-3.961-8.971    C39.942,14.23,31.688,6.204,28.553,4.966c-0.158-0.062-0.299-0.097-0.429-0.126c-0.313-1.013-0.479-1.708-1.698-2.521    c-3.354-2.236-7.099-2.866-9.578-1.843c-2.481,1.023-3.859,6.687-1.19,8.625c2.546,1.857,7.583-1.888,9.195,0.509    c1.609,2.396,3.386,10.374,6.338,15.473c-0.746-0.102-1.514-0.156-2.307-0.156c-3.406,0-6.467,0.998-8.63,2.593    c-1.85-2.887-5.08-4.806-8.764-4.806c-3.82,0-7.141,2.064-8.95,5.13v22.619h4.879l1.042-1.849    c3.354-1.287,7.32-4.607,10.076-8.147C29.551,44.789,47.676,36.789,47.923,29.694z"
         style="fill:#010002;" /></g></g><g
     id="g2130" /><g
     id="g2132" /><g
     id="g2134" /><g
     id="g2136" /><g
     id="g2138" /><g
     id="g2140" /><g
     id="g2142" /><g
     id="g2144" /><g
     id="g2146" /><g
     id="g2148" /><g
     id="g2150" /><g
     id="g2152" /><g
     id="g2154" /><g
     id="g2156" /><g
     id="g2158" /></svg>